<mxfile host="app.diagrams.net" modified="2023-09-21T16:24:04.933Z" agent="Mozilla/5.0 (Windows NT 10.0; Win64; x64) AppleWebKit/537.36 (KHTML, like Gecko) Chrome/116.0.0.0 Safari/537.36" etag="hYj_gkud0V6VnquZmQD8" version="21.8.0" type="github">
  <diagram name="PÃ¡gina-1" id="vNSEy4ojOJAuJYVF_OBD">
    <mxGraphModel dx="1129" dy="715" grid="1" gridSize="10" guides="1" tooltips="1" connect="1" arrows="1" fold="1" page="1" pageScale="1" pageWidth="827" pageHeight="1169" math="0" shadow="0">
      <root>
        <mxCell id="0" />
        <mxCell id="1" parent="0" />
        <mxCell id="cWN1z9HHFgkNSMIORlXf-1" value="DB" style="whiteSpace=wrap;html=1;aspect=fixed;" parent="1" vertex="1">
          <mxGeometry x="620" y="300" width="190" height="190" as="geometry" />
        </mxCell>
        <mxCell id="cWN1z9HHFgkNSMIORlXf-3" value="Web" style="ellipse;shape=cloud;whiteSpace=wrap;html=1;" parent="1" vertex="1">
          <mxGeometry x="220" y="10" width="260" height="140" as="geometry" />
        </mxCell>
        <mxCell id="cWN1z9HHFgkNSMIORlXf-4" value="API - NodeJs" style="rounded=0;whiteSpace=wrap;html=1;" parent="1" vertex="1">
          <mxGeometry x="40" y="300" width="290" height="220" as="geometry" />
        </mxCell>
        <mxCell id="cWN1z9HHFgkNSMIORlXf-6" value="" style="endArrow=classic;startArrow=classic;html=1;rounded=0;entryX=-0.021;entryY=0.616;entryDx=0;entryDy=0;entryPerimeter=0;" parent="1" source="cWN1z9HHFgkNSMIORlXf-4" target="cWN1z9HHFgkNSMIORlXf-1" edge="1">
          <mxGeometry width="50" height="50" relative="1" as="geometry">
            <mxPoint x="390" y="390" as="sourcePoint" />
            <mxPoint x="440" y="340" as="targetPoint" />
          </mxGeometry>
        </mxCell>
        <mxCell id="cWN1z9HHFgkNSMIORlXf-8" value="" style="shape=flexArrow;endArrow=classic;startArrow=classic;html=1;rounded=0;" parent="1" edge="1">
          <mxGeometry width="100" height="100" relative="1" as="geometry">
            <mxPoint x="180" y="280" as="sourcePoint" />
            <mxPoint x="310" y="150" as="targetPoint" />
          </mxGeometry>
        </mxCell>
      </root>
    </mxGraphModel>
  </diagram>
</mxfile>
